<?xml version="1.0" encoding="UTF-8" standalone="no"?>
<!-- Created with Inkscape (http://www.inkscape.org/) -->

<svg
   xmlns:dc="http://purl.org/dc/elements/1.1/"
   xmlns:cc="http://creativecommons.org/ns#"
   xmlns:rdf="http://www.w3.org/1999/02/22-rdf-syntax-ns#"
   xmlns:svg="http://www.w3.org/2000/svg"
   xmlns="http://www.w3.org/2000/svg"
   xmlns:sodipodi="http://sodipodi.sourceforge.net/DTD/sodipodi-0.dtd"
   xmlns:inkscape="http://www.inkscape.org/namespaces/inkscape"
   width="256"
   height="256"
   viewBox="0 0 256 256"
   id="svg3422"
   version="1.1"
   inkscape:version="0.91 r"
   sodipodi:docname="berry.svg">
  <defs
     id="defs3424" />
  <sodipodi:namedview
     id="base"
     pagecolor="#ffffff"
     bordercolor="#666666"
     borderopacity="1.0"
     inkscape:pageopacity="0.0"
     inkscape:pageshadow="2"
     inkscape:zoom="1.979899"
     inkscape:cx="78.787775"
     inkscape:cy="118.69051"
     inkscape:document-units="px"
     inkscape:current-layer="layer1"
     showgrid="false"
     inkscape:window-width="1319"
     inkscape:window-height="748"
     inkscape:window-x="47"
     inkscape:window-y="-3"
     inkscape:window-maximized="1"
     showguides="true"
     inkscape:guide-bbox="true"
     units="px" />
  <metadata
     id="metadata3427">
    <rdf:RDF>
      <cc:Work
         rdf:about="">
        <dc:format>image/svg+xml</dc:format>
        <dc:type
           rdf:resource="http://purl.org/dc/dcmitype/StillImage" />
        <dc:title />
      </cc:Work>
    </rdf:RDF>
  </metadata>
  <g
     inkscape:label="Layer 1"
     inkscape:groupmode="layer"
     id="layer1"
     transform="translate(0,-796.36216)">
    <g
       id="g6058"
       transform="matrix(0.67052077,0,0,0.67052077,-133.98204,637.32798)">
      <rect
         ry="21.317453"
         y="254.50507"
         x="217.14285"
         height="347.14285"
         width="347.14285"
         id="rect3710"
         style="opacity:1;fill:#e6e6e6;fill-opacity:1" />
      <path
         inkscape:connector-curvature="0"
         id="path3696-0"
         d="m 410.5184,291.88582 -3.15906,0.2747 c -4.22276,0.36767 -4.59661,0.59858 -4.59661,2.82941 0,2.03769 -0.26122,2.30235 -2.87825,2.90265 -2.19859,0.50432 -2.12664,-0.98666 -0.65927,13.55795 1.62396,16.09685 -0.22587,28.84344 -0.22587,28.84344 -0.23506,-0.26318 -2.55813,0.0576 -2.97286,-0.47614 -3.60497,-4.63965 -16.40794,-35.33177 -18.76503,-38.06419 -3.25487,-3.77316 -7.73356,-7.91154 -9.62059,-8.89111 -1.77529,-0.92158 -3.815,-0.8549 -4.83166,0.16177 -2.03105,2.03103 -2.55638,6.66479 -3.19567,28.12922 -0.22507,7.55744 -0.58594,14.29556 -0.80273,14.97417 0.0143,6.59498 -0.36995,12.01238 -0.5555,16.5247 a 44.670162,44.670162 0 0 0 -22.11026,-5.89383 44.670162,44.670162 0 0 0 -44.66918,44.67225 44.670162,44.670162 0 0 0 0.18619,3.78779 47.071747,47.071747 0 0 0 -16.05772,35.33247 47.071747,47.071747 0 0 0 19.66238,38.21984 49.710388,49.710388 0 0 0 -3.29945,17.64181 49.710388,49.710388 0 0 0 49.71146,49.70841 49.710388,49.710388 0 0 0 7.7404,-0.63793 42.707229,42.707229 0 0 0 41.65972,33.56217 42.707229,42.707229 0 0 0 41.75126,-33.80635 49.710388,49.710388 0 0 0 7.12082,0.57382 49.710388,49.710388 0 0 0 49.70841,-49.71145 49.710388,49.710388 0 0 0 -2.52725,-15.45641 47.071747,47.071747 0 0 0 20.2423,-38.61054 47.071747,47.071747 0 0 0 -17.44036,-36.52893 43.942741,43.942741 0 0 0 0.17092,-3.42153 43.942741,43.942741 0 0 0 -43.94276,-43.94276 43.942741,43.942741 0 0 0 -28.10787,10.21882 51.436255,51.436255 0 0 0 -5.87855,-3.16515 c 3.0266,-6.5624 5.07976,-14.41164 5.60082,-23.72183 0.33945,-4.22654 0.98541,-13.32783 1.43758,-20.22703 0.77113,-11.7666 0.7805,-12.57515 0.1282,-13.05739 -0.38245,-0.28275 -1.00003,-0.51582 -1.37045,-0.51582 -0.98404,0 -4.1228,-2.18704 -5.90604,-4.11439 l -1.54747,-1.67261 z"
         style="fill:none;stroke:#ffffff;stroke-width:12.55969906;stroke-miterlimit:4;stroke-dasharray:none" />
      <g
         id="g6074"
         transform="matrix(1.1524365,0,0,1.1524365,-59.677268,-65.600157)">
        <path
           style="fill:#5aa02c"
           d="m 407.9296,310.29437 -2.74118,0.23836 c -3.66427,0.31905 -3.98867,0.51941 -3.98867,2.45515 0,1.76816 -0.22666,1.99782 -2.49754,2.51872 -1.90778,0.43761 -1.8453,-0.85616 -0.57201,11.76459 1.40912,13.96767 -0.19573,25.02839 -0.19573,25.02839 -0.20396,-0.22838 -2.22034,0.0489 -2.58017,-0.41416 -3.12815,-4.02595 -14.23734,-30.65748 -16.2827,-33.02849 -2.82434,-3.27407 -6.71059,-6.86505 -8.34805,-7.71504 -1.54043,-0.79969 -3.31035,-0.74183 -4.19253,0.14036 -1.76241,1.76239 -2.21822,5.78323 -2.77299,24.40849 -0.19529,6.55778 -0.50838,12.40464 -0.69652,12.99349 0.0362,16.84886 -3.01998,25.45314 4.61794,28.23743 -19.39096,19.48114 43.50377,22.12624 46.54841,-32.27643 0.29453,-3.66747 0.85505,-11.56493 1.2474,-17.55154 0.66912,-10.21019 0.67725,-10.91179 0.11126,-11.33024 -0.33191,-0.24535 -0.86778,-0.44759 -1.18917,-0.44759 -0.8539,0 -3.5775,-1.89776 -5.12482,-3.57017 z m -12.22015,57.8642 c 5.31304,11.09487 -0.1884,9.21535 -1.39047,0.0239 0.43503,-0.0171 0.89658,-0.0241 1.39047,-0.0239 z m -8.49633,3.04841 c 0.0124,-0.0831 0.0106,-0.002 -0.009,0.29399 -0.0672,1.04977 -0.18611,1.90185 -0.30196,2.44985 0.15067,-1.32719 -7.95215,9.55452 -7.92317,9.36354 z"
           id="path3696"
           inkscape:connector-curvature="0"
           sodipodi:nodetypes="ccssssssscscccscscccccccccc" />
        <circle
           style="opacity:1;fill:#aa0000;fill-opacity:1"
           id="path3430-2-3-9-5-1-9"
           cx="391.06339"
           cy="513.73291"
           r="37.058205" />
        <circle
           style="opacity:1;fill:#800000;fill-opacity:1"
           id="path3430-6"
           cx="348.19684"
           cy="479.08847"
           r="43.135033" />
        <circle
           style="opacity:1;fill:#aa0000;fill-opacity:1"
           id="path3430-26"
           cx="438.86014"
           cy="397.23694"
           r="38.130291" />
        <circle
           style="opacity:1;fill:#800000;fill-opacity:1"
           id="path3430-6-5"
           cx="433.46936"
           cy="478.82034"
           r="43.135033" />
        <circle
           style="opacity:1;fill:#550000;fill-opacity:1"
           id="path3430-2-3-9"
           cx="451.12967"
           cy="431.90488"
           r="40.845413" />
        <circle
           style="opacity:1;fill:#aa0000;fill-opacity:1"
           id="path3430-8"
           cx="343.39468"
           cy="396.6701"
           r="38.761494" />
        <circle
           style="opacity:1;fill:#550000;fill-opacity:1"
           id="path3430-2-3-9-3"
           cx="331.70691"
           cy="430.61707"
           r="40.845413" />
        <circle
           style="opacity:1;fill:#800000;fill-opacity:1"
           id="path3430-2-3"
           cx="390.90424"
           cy="405.8154"
           r="44.632614" />
        <circle
           style="opacity:1;fill:#aa0000;fill-opacity:1"
           id="path3430-2"
           cx="391.29028"
           cy="460.29163"
           r="44.632614" />
      </g>
    </g>
  </g>
</svg>
