<?xml version="1.0" encoding="UTF-8" standalone="no"?>
<!-- Created with Inkscape (http://www.inkscape.org/) -->

<svg
   xmlns:dc="http://purl.org/dc/elements/1.1/"
   xmlns:cc="http://creativecommons.org/ns#"
   xmlns:rdf="http://www.w3.org/1999/02/22-rdf-syntax-ns#"
   xmlns:svg="http://www.w3.org/2000/svg"
   xmlns="http://www.w3.org/2000/svg"
   xmlns:sodipodi="http://sodipodi.sourceforge.net/DTD/sodipodi-0.dtd"
   xmlns:inkscape="http://www.inkscape.org/namespaces/inkscape"
   width="256"
   height="256"
   viewBox="0 0 256 256"
   id="svg3422"
   version="1.1"
   inkscape:version="0.91 r"
   sodipodi:docname="drawing.svg">
  <defs
     id="defs3424" />
  <sodipodi:namedview
     id="base"
     pagecolor="#ffffff"
     bordercolor="#666666"
     borderopacity="1.0"
     inkscape:pageopacity="0.0"
     inkscape:pageshadow="2"
     inkscape:zoom="1.979899"
     inkscape:cx="132.68781"
     inkscape:cy="118.69051"
     inkscape:document-units="px"
     inkscape:current-layer="layer1"
     showgrid="false"
     inkscape:window-width="1319"
     inkscape:window-height="748"
     inkscape:window-x="47"
     inkscape:window-y="-3"
     inkscape:window-maximized="1"
     showguides="true"
     inkscape:guide-bbox="true"
     units="px" />
  <metadata
     id="metadata3427">
    <rdf:RDF>
      <cc:Work
         rdf:about="">
        <dc:format>image/svg+xml</dc:format>
        <dc:type
           rdf:resource="http://purl.org/dc/dcmitype/StillImage" />
        <dc:title></dc:title>
      </cc:Work>
    </rdf:RDF>
  </metadata>
  <g
     inkscape:label="Layer 1"
     inkscape:groupmode="layer"
     id="layer1"
     transform="translate(0,-796.36216)">
    <g
       id="g6058"
       transform="matrix(0.73744857,0,0,0.73744857,-160.13169,608.67776)">
      <rect
         ry="21.317453"
         y="254.50507"
         x="217.14285"
         height="347.14285"
         width="347.14285"
         id="rect3710"
         style="opacity:1;fill:#e6e6e6;fill-opacity:1" />
      <path
         inkscape:connector-curvature="0"
         id="path3696-0"
         d="m 408.00137,310.20015 -2.7412,0.23837 c -3.66421,0.31903 -3.98861,0.5194 -3.98861,2.45515 0,1.76816 -0.22666,1.99781 -2.49753,2.51871 -1.90778,0.43761 -1.84534,-0.85615 -0.57207,11.76459 1.40916,13.96767 -0.19599,25.02823 -0.19599,25.02823 -0.20397,-0.22837 -2.21976,0.05 -2.57963,-0.41316 -3.12813,-4.02595 -14.23761,-30.65832 -16.28292,-33.02932 -2.82434,-3.27407 -6.71062,-6.86505 -8.34804,-7.71505 -1.54047,-0.79968 -3.31038,-0.74182 -4.19256,0.14037 -1.7624,1.76238 -2.21824,5.78322 -2.77297,24.40848 -0.1953,6.55779 -0.50844,12.40464 -0.69655,12.99349 0.0124,5.72264 -0.32102,10.42346 -0.48202,14.33892 a 38.761495,38.761495 0 0 0 -19.18567,-5.11423 38.761495,38.761495 0 0 0 -38.76064,38.7633 38.761495,38.761495 0 0 0 0.16156,3.28677 40.845415,40.845415 0 0 0 -13.93371,30.65893 40.845415,40.845415 0 0 0 17.06157,33.16438 43.135034,43.135034 0 0 0 -2.86302,15.30827 43.135034,43.135034 0 0 0 43.13596,43.13332 43.135034,43.135034 0 0 0 6.71656,-0.55355 37.058206,37.058206 0 0 0 36.14925,29.12279 37.058206,37.058206 0 0 0 36.22869,-29.33467 43.135034,43.135034 0 0 0 6.17892,0.49792 43.135034,43.135034 0 0 0 43.13332,-43.13596 43.135034,43.135034 0 0 0 -2.19296,-13.41194 40.845415,40.845415 0 0 0 17.56478,-33.5034 40.845415,40.845415 0 0 0 -15.13346,-31.69713 38.130293,38.130293 0 0 0 0.14831,-2.96895 38.130293,38.130293 0 0 0 -38.13031,-38.13031 38.130293,38.130293 0 0 0 -24.38995,8.86714 44.632615,44.632615 0 0 0 -5.10098,-2.74648 c 2.62626,-5.69437 4.40785,-12.50537 4.85998,-20.58407 0.29455,-3.66748 0.85507,-11.56492 1.24743,-17.55154 0.66913,-10.21019 0.67726,-10.91179 0.11124,-11.33024 -0.33186,-0.24535 -0.86775,-0.44759 -1.18917,-0.44759 -0.85388,0 -3.57747,-1.89776 -5.12483,-3.57017 l -1.34278,-1.45137 z"
         style="fill:none;stroke:#ffffff;stroke-width:10.89838712;stroke-miterlimit:4;stroke-dasharray:none" />
      <g
         id="g6074">
        <path
           style="fill:#5aa02c"
           d="m 407.9296,310.29437 -2.74118,0.23836 c -3.66427,0.31905 -3.98867,0.51941 -3.98867,2.45515 0,1.76816 -0.22666,1.99782 -2.49754,2.51872 -1.90778,0.43761 -1.8453,-0.85616 -0.57201,11.76459 1.40912,13.96767 -0.19573,25.02839 -0.19573,25.02839 -0.20396,-0.22838 -2.22034,0.0489 -2.58017,-0.41416 -3.12815,-4.02595 -14.23734,-30.65748 -16.2827,-33.02849 -2.82434,-3.27407 -6.71059,-6.86505 -8.34805,-7.71504 -1.54043,-0.79969 -3.31035,-0.74183 -4.19253,0.14036 -1.76241,1.76239 -2.21822,5.78323 -2.77299,24.40849 -0.19529,6.55778 -0.50838,12.40464 -0.69652,12.99349 0.0362,16.84886 -3.01998,25.45314 4.61794,28.23743 -19.39096,19.48114 43.50377,22.12624 46.54841,-32.27643 0.29453,-3.66747 0.85505,-11.56493 1.2474,-17.55154 0.66912,-10.21019 0.67725,-10.91179 0.11126,-11.33024 -0.33191,-0.24535 -0.86778,-0.44759 -1.18917,-0.44759 -0.8539,0 -3.5775,-1.89776 -5.12482,-3.57017 z m -12.22015,57.8642 c 5.31304,11.09487 -0.1884,9.21535 -1.39047,0.0239 0.43503,-0.0171 0.89658,-0.0241 1.39047,-0.0239 z m -8.49633,3.04841 c 0.0124,-0.0831 0.0106,-0.002 -0.009,0.29399 -0.0672,1.04977 -0.18611,1.90185 -0.30196,2.44985 0.15067,-1.32719 -7.95215,9.55452 -7.92317,9.36354 z"
           id="path3696"
           inkscape:connector-curvature="0"
           sodipodi:nodetypes="ccssssssscscccscscccccccccc" />
        <circle
           style="opacity:1;fill:#aa0000;fill-opacity:1"
           id="path3430-2-3-9-5-1-9"
           cx="391.06339"
           cy="513.73291"
           r="37.058205" />
        <circle
           style="opacity:1;fill:#800000;fill-opacity:1"
           id="path3430-6"
           cx="348.19684"
           cy="479.08847"
           r="43.135033" />
        <circle
           style="opacity:1;fill:#aa0000;fill-opacity:1"
           id="path3430-26"
           cx="438.86014"
           cy="397.23694"
           r="38.130291" />
        <circle
           style="opacity:1;fill:#800000;fill-opacity:1"
           id="path3430-6-5"
           cx="433.46936"
           cy="478.82034"
           r="43.135033" />
        <circle
           style="opacity:1;fill:#550000;fill-opacity:1"
           id="path3430-2-3-9"
           cx="451.12967"
           cy="431.90488"
           r="40.845413" />
        <circle
           style="opacity:1;fill:#aa0000;fill-opacity:1"
           id="path3430-8"
           cx="343.39468"
           cy="396.6701"
           r="38.761494" />
        <circle
           style="opacity:1;fill:#550000;fill-opacity:1"
           id="path3430-2-3-9-3"
           cx="331.70691"
           cy="430.61707"
           r="40.845413" />
        <circle
           style="opacity:1;fill:#800000;fill-opacity:1"
           id="path3430-2-3"
           cx="390.90424"
           cy="405.8154"
           r="44.632614" />
        <circle
           style="opacity:1;fill:#aa0000;fill-opacity:1"
           id="path3430-2"
           cx="391.29028"
           cy="460.29163"
           r="44.632614" />
      </g>
    </g>
  </g>
</svg>
